<svg width="585" height="558" viewBox="0 0 585 558" fill="none" xmlns="http://www.w3.org/2000/svg">
<mask id="path-1-inside-1_1352_6483" fill="white">
<path d="M585 291.169C585 438.281 465.742 557.539 318.63 557.539C171.518 557.539 52.2603 438.281 52.2603 291.169C52.2603 144.057 171.518 24.7993 318.63 24.7993C465.742 24.7993 585 144.057 585 291.169ZM81.6983 291.169C81.6983 422.023 187.776 528.101 318.63 528.101C449.484 528.101 555.562 422.023 555.562 291.169C555.562 160.315 449.484 54.2374 318.63 54.2374C187.776 54.2374 81.6983 160.315 81.6983 291.169Z"/>
</mask>
<path d="M585 291.169C585 438.281 465.742 557.539 318.63 557.539C171.518 557.539 52.2603 438.281 52.2603 291.169C52.2603 144.057 171.518 24.7993 318.63 24.7993C465.742 24.7993 585 144.057 585 291.169ZM81.6983 291.169C81.6983 422.023 187.776 528.101 318.63 528.101C449.484 528.101 555.562 422.023 555.562 291.169C555.562 160.315 449.484 54.2374 318.63 54.2374C187.776 54.2374 81.6983 160.315 81.6983 291.169Z" fill="#292482" stroke="black" stroke-opacity="0.5" stroke-width="1.2" stroke-linejoin="round" mask="url(#path-1-inside-1_1352_6483)"/>
<path d="M477.903 260.962V256.385L476.988 254.555H472.411L466.919 252.724L463.257 250.893L457.765 247.232L453.188 244.486L448.611 238.994L445.865 234.417L444.035 230.755L443.119 227.094V221.602L444.035 217.025L444.95 214.279L446.781 210.617L448.611 209.702L450.442 207.871L453.188 206.956L459.596 207.871L463.257 210.617L466.003 213.364L466.919 210.617V207.871L466.003 206.956L465.088 205.125L463.257 206.956L460.511 207.871L454.104 206.041L451.357 206.956H449.527L445.865 204.21L443.119 201.464L442.204 193.226V189.564L443.119 185.903L444.95 180.411L446.781 175.834L450.442 172.172L453.188 169.426L456.85 167.595H460.511L465.088 168.511L469.665 171.257L473.326 173.088L472.411 168.511L473.326 162.103L474.241 158.442L476.072 155.696L477.903 153.865L480.649 152.95H483.395H486.141L489.803 154.78L492.549 157.527L495.295 161.188L497.125 164.849L498.956 169.426L500.787 174.003V170.342L501.702 164.849L503.533 162.103L505.364 159.357L508.11 157.527L511.771 156.611L514.517 157.527L518.179 161.188L520.925 164.849L522.756 169.426L523.671 174.918V177.664V180.411L525.502 178.58L527.332 176.749L528.248 174.918L530.078 173.088L531.909 172.172H533.74H536.486H539.232L541.978 174.003L544.724 176.749L545.64 179.495V184.072V189.564L544.724 195.972L542.894 201.464L540.147 206.041L537.401 209.702L534.655 212.448L535.571 213.364L536.486 218.856V225.263V231.671L534.655 236.248L533.74 239.909L530.994 243.57L529.163 246.316L525.502 249.063V260.047L522.756 260.962L517.263 263.708L511.771 265.539L500.787 266.454L491.633 265.539L484.31 263.708L477.903 260.962Z" fill="#FBD5B0"/>
<path d="M466.003 213.364L463.257 210.617L459.596 207.871L453.188 206.956L450.442 207.871L448.611 209.702L446.781 210.617L444.95 214.279L444.035 217.025L443.119 221.602V227.094L444.035 230.755L445.865 234.417L448.611 238.994L453.188 244.486L457.765 247.232L463.257 250.893L466.919 252.724L472.411 254.555H476.988L477.903 256.385V260.962L484.31 263.708L491.633 265.539L500.787 266.454L511.771 265.539L517.263 263.708L522.756 260.962L525.502 260.047V249.063L529.163 246.316L530.994 243.57L533.74 239.909L534.655 236.248L536.486 231.671V225.263V218.856L535.571 213.364L534.655 212.448L537.401 209.702L540.147 206.041L542.894 201.464L544.724 195.972L545.64 189.564V184.072V179.495L544.724 176.749L541.978 174.003L539.232 172.172H536.486H533.74H531.909L530.078 173.088L528.248 174.918L527.332 176.749L525.502 178.58L523.671 180.411M466.003 213.364L466.919 217.94V222.517M466.003 213.364L466.919 210.617V207.871L466.003 206.956L465.088 205.125M466.919 222.517L466.003 227.094L464.173 230.755M466.919 222.517L469.665 221.602L473.326 220.686L477.903 219.771L481.564 220.686L486.141 222.517L489.803 224.348M523.671 180.411V183.157V184.987V187.733V189.564V191.395M523.671 180.411V177.664V174.918L522.756 169.426L520.925 164.849L518.179 161.188L514.517 157.527L511.771 156.611L508.11 157.527L505.364 159.357L503.533 162.103L501.702 164.849L500.787 170.342V174.003M523.671 191.395L521.84 192.31L520.925 194.141L519.094 197.802L518.179 202.379V203.295M523.671 191.395H525.502H527.332L529.163 192.31M518.179 205.125L511.771 202.379L501.702 201.464M501.702 201.464H492.549L484.31 202.379V196.887V192.31L483.395 187.733L481.564 184.072L479.053 179.589M501.702 201.464V198.718V194.141L502.618 190.479V185.903V183.157V179.495M503.533 223.432L506.279 219.771L511.771 217.025M486.141 218.856H492.549L498.041 217.94L500.787 217.025H503.533M502.618 179.495L504.448 181.326H507.194H510.856M502.618 179.495L500.787 174.003M500.787 174.003L498.956 169.426L497.125 164.849L495.295 161.188L492.549 157.527L489.803 154.78L486.141 152.95H483.395H480.649L477.903 153.865L476.072 155.696L474.241 158.442L473.326 162.103L472.411 168.511L473.326 173.088M473.326 173.088L476.072 175.834L478.818 179.495L479.053 179.589M473.326 173.088L469.665 171.257L465.088 168.511L460.511 167.595H456.85L453.188 169.426L450.442 172.172L446.781 175.834L444.95 180.411L443.119 185.903L442.204 189.564V193.226L443.119 201.464L445.865 204.21L449.527 206.956H451.357L454.104 206.041L460.511 207.871L463.257 206.956L465.088 205.125M490.718 179.495L488.887 180.411L487.057 181.326H483.395L479.053 179.589M465.088 205.125L466.919 202.379L468.749 198.718V193.226L466.919 189.564L465.088 186.818L461.426 182.241" stroke="black" stroke-opacity="0.6" stroke-width="0.5" stroke-linejoin="round"/>
<path d="M477.903 256.386V260.963L484.31 263.709L491.633 265.539L500.787 266.455L511.771 265.539L517.263 263.709L522.755 260.963L525.502 260.047V249.063L529.163 246.317L530.994 243.571L533.74 239.909L534.655 236.248L536.486 231.671L531.909 236.248L529.163 239.909L522.755 243.571L514.517 245.401L509.94 246.317L505.364 245.401L502.617 241.74L501.702 242.655L498.956 246.317L493.464 248.147L484.31 249.063L478.818 248.147L468.749 245.401L462.342 242.655L456.849 238.994L452.273 233.502L447.696 228.01L444.034 226.179V230.756L445.865 234.417L448.611 238.994L453.188 244.486L457.765 247.232L463.257 250.894L466.918 252.724L472.411 254.555H476.987L477.903 256.386Z" fill="#EFA882"/>
<path d="M466.918 208.787V213.364V222.517H468.749L471.495 218.856L473.326 213.364L474.241 206.956V199.633V195.057L470.58 187.734L466.918 184.988L462.342 184.072L464.172 185.903L466.003 187.734L467.834 192.311L468.749 197.803L467.834 201.464L466.003 205.126V206.041L466.918 208.787Z" fill="#EFA882"/>
<path d="M446.781 189.564L443.119 191.395L442.204 193.226V196.887L443.119 200.549L445.865 202.379L447.696 204.21L449.527 205.125H454.104H456.85L458.68 203.295L459.596 198.718V194.141L455.934 189.564L450.442 188.649L446.781 189.564Z" fill="#FDEBD7"/>
<path d="M447.696 226.179L443.119 225.263L444.035 220.687L444.95 216.11L446.781 210.618H450.442L455.934 211.533L458.68 212.448V217.025V221.602L455.934 225.263L453.188 226.179H447.696Z" fill="#FDEBD7"/>
<path d="M446.781 189.564L443.119 191.395L442.204 193.226V196.887L443.119 200.549L445.865 202.379L447.696 204.21L449.527 205.125H454.104H456.85L458.68 203.295L459.596 198.718V194.141L455.934 189.564L450.442 188.649L446.781 189.564Z" stroke="black" stroke-opacity="0.6" stroke-width="0.5" stroke-linejoin="round"/>
<path d="M447.696 226.179L443.119 225.263L444.035 220.687L444.95 216.11L446.781 210.618H450.442L455.934 211.533L458.68 212.448V217.025V221.602L455.934 225.263L453.188 226.179H447.696Z" stroke="black" stroke-opacity="0.6" stroke-width="0.5" stroke-linejoin="round"/>
<path d="M94.3669 364.398L93.4515 359.821H98.9437H107.182H117.251H128.608L150.204 358.906L160.273 357.991L170.342 356.16L178.58 355.245L180.411 361.652L177.665 365.314L173.088 368.975L169.426 373.552L163.019 377.213L155.696 380.875L147.458 384.536L138.304 388.198L132.812 389.113H126.404H118.166L111.759 388.198L107.182 385.452L101.69 378.129L98.0283 371.721L94.3669 364.398Z" fill="white"/>
<path d="M477.903 260.963V258.216L476.988 256.386L473.326 254.555H470.58H469.665L467.834 258.216L466.919 262.793L465.088 277.439L464.172 285.677V288.423L465.088 294.831L466.003 296.662L466.919 298.492L470.58 300.323L476.988 304.9L484.31 307.646L494.379 308.561L503.533 309.477H510.856H516.348H522.756L528.248 308.561L533.74 307.646L538.317 306.731L541.978 300.323L543.809 295.746V284.762V274.693L541.978 263.709L540.147 255.47L535.571 249.978L530.994 248.147L528.248 249.063L526.417 249.978V251.809V257.301L527.332 258.216L529.163 259.132L525.502 261.878L515.433 264.624L502.618 267.37L489.803 266.455L480.649 262.793L477.903 260.963Z" fill="white"/>
<path d="M93.4515 359.821L94.3669 364.398L98.0283 371.721L101.69 378.129L107.182 385.452L111.759 388.198L118.166 389.113H126.404H132.812L138.304 388.198L147.458 384.536L155.696 380.875L163.019 377.213L169.426 373.552L173.088 368.975L177.665 365.314L180.411 361.652L178.58 355.245L170.342 356.16L160.273 357.991L150.204 358.906L128.608 359.821H117.251H107.182H98.9437H92.5361M529.163 259.132L525.502 261.878L515.433 264.624L502.618 267.37L489.803 266.455L480.649 262.793L477.903 260.963V258.216L476.988 256.386L473.326 254.555H470.58H469.665L467.834 258.216L466.919 262.793L465.088 277.439L464.172 285.677V288.423L465.088 294.831L466.003 296.662L466.919 298.492L470.58 300.323L476.988 304.9L484.31 307.646L494.379 308.561L503.533 309.477H510.856H516.348H522.756L528.248 308.561L533.74 307.646L538.317 306.731L541.978 300.323L543.809 295.746V284.762V274.693L541.978 263.709L540.147 255.47L535.571 249.978L530.994 248.147L528.248 249.063L526.417 249.978V251.809V257.301L527.332 258.216L529.163 259.132ZM529.163 259.132L531.909 255.47" stroke="black" stroke-opacity="0.6" stroke-width="0.5" stroke-linejoin="round"/>
<path d="M94.3669 365.314L93.4515 360.737H98.9437H107.182L108.097 366.229L109.928 371.721L111.759 375.383L115.42 379.044L121.828 383.621L129.151 385.451H135.558L141.966 384.536H146.542L136.473 388.198L126.404 390.028H118.166L111.759 389.113L107.182 386.367L101.69 379.044L98.0283 372.636L94.3669 365.314Z" fill="#C1D4D5"/>
<path d="M543.809 296.662V285.677V273.777L542.893 271.947L541.063 277.439L537.401 282.931L529.163 289.339L521.84 292.085L511.771 293.915H500.787L487.056 292.085L480.649 290.254L472.411 288.423L467.834 284.762L465.088 282.016L464.172 286.593V289.339L465.088 294.831L466.003 296.662L466.919 298.492L470.58 300.323L477.903 304.9L484.31 307.646L494.379 308.561L503.533 309.477H510.856H523.671L528.248 308.561L534.655 307.646L538.317 306.73L541.978 301.238L543.809 296.662Z" fill="#C1D4D5"/>
<path d="M229.84 491.633L223.433 506.279L228.925 510.856L240.824 515.432L264.624 522.755L292.085 528.247L312.223 530.078H334.191L353.414 528.247L383.621 520.925L401.928 514.517L417.489 506.279L442.204 490.718L462.342 475.157L471.495 466.918L470.58 458.68L465.088 442.204L458.68 423.896L454.103 409.251L444.95 390.028H451.357L465.088 389.113L470.58 388.197L477.903 386.367L485.226 384.536L493.464 380.874L502.618 375.382L509.025 370.805L515.433 366.229L522.756 357.075L528.248 348.837L532.824 338.768L535.571 332.36L536.486 325.953L538.317 314.053V306.73L537.401 307.646L530.078 308.561L522.756 309.476H512.687H503.533L491.633 308.561L484.31 307.646L477.903 304.9L473.326 302.153L469.665 299.407L468.749 301.238L467.834 304.9L466.919 307.646V310.392L466.003 312.222H465.088H462.342H460.511L457.765 313.138L455.019 311.307L448.611 308.561L441.288 305.815L433.05 303.069L427.558 302.153H421.151L415.658 303.069L411.997 303.984V300.323L411.082 297.577L409.251 294.831L407.42 292.084L405.589 293.915L401.013 296.661L395.52 300.323L391.859 302.153V303.984L390.944 306.73L390.028 310.392L387.282 314.968L383.621 319.545L379.959 323.207L379.044 329.614V335.106L379.959 342.429L353.414 364.398L342.429 337.852L341.514 335.106L339.683 331.445L336.937 327.784L332.361 323.207L328.699 320.461L324.122 318.63L313.138 317.715H303.984L291.169 316.799L281.1 314.968L271.031 312.222L265.539 309.476L260.962 306.73L257.301 303.984L252.724 301.238V311.307L241.74 312.222L236.248 314.053L233.502 315.884L229.84 319.545L227.094 322.291L222.517 330.53L206.956 344.26L202.379 349.752L199.633 354.329L195.056 357.075L188.649 361.652L184.072 365.313L180.411 361.652L174.919 368.059L167.596 374.467L159.357 379.959L150.204 383.621L142.881 387.282L133.727 389.113H122.743H116.335L119.997 394.605L123.658 400.097L128.235 407.42L133.727 413.827L140.135 420.235L150.204 427.558L159.357 433.05L169.426 436.711L179.495 438.542H186.818L196.887 436.711L206.956 433.05L219.771 425.727L231.671 415.658L242.655 405.589L252.724 394.605L250.893 410.166L248.147 426.642L243.571 447.696L239.909 462.342L235.332 477.903L229.84 491.633Z" fill="white"/>
<path d="M243.571 447.696L239.909 462.342L235.332 477.903L229.84 491.633L223.433 506.279L228.925 510.856L240.824 515.432L264.624 522.755L292.085 528.247L312.223 530.078H334.191L353.414 528.247L383.621 520.925L401.928 514.517L417.489 506.279L442.204 490.718L462.342 475.157L471.495 466.918L470.58 458.68L465.088 442.204L458.68 423.896L454.103 409.251L444.95 390.028M243.571 447.696L252.724 438.542L259.132 427.558L264.624 414.743L271.947 403.758M243.571 447.696L248.147 426.642L250.893 410.166L252.724 394.605M252.724 394.605L260.962 382.705L268.285 370.805M252.724 394.605L242.655 405.589L231.671 415.658L219.771 425.727L206.956 433.05L196.887 436.711L186.818 438.542H179.495L169.426 436.711L159.357 433.05L150.204 427.558L140.135 420.235L133.727 413.827L128.235 407.42L123.658 400.097L119.997 394.605L116.335 389.113H122.743H133.727L142.881 387.282L150.204 383.621L159.357 379.959L167.596 374.467L174.919 368.059L180.411 361.652L184.072 365.313M184.072 365.313L188.649 370.805L193.226 378.128L196.887 386.367L199.633 394.605L200.549 400.097M184.072 365.313L188.649 361.652L195.056 357.075L199.633 354.329M199.633 354.329L205.125 352.498L215.194 351.583M199.633 354.329L202.379 349.752L206.956 344.26L222.517 330.53M222.517 330.53H228.925H235.332M222.517 330.53L227.094 322.291L229.84 319.545L233.502 315.884L236.248 314.053L241.74 312.222L252.724 311.307V301.238L257.301 303.984L260.962 306.73L265.539 309.476L271.031 312.222L281.1 314.968L291.169 316.799L303.984 317.715H313.138L324.122 318.63L328.699 320.461L332.361 323.207L336.937 327.784L339.683 331.445L341.514 335.106L342.429 337.852L353.414 364.398M353.414 364.398L356.16 368.059L359.821 370.805L366.229 376.298L372.636 380.874L382.705 386.367L388.198 388.197L391.859 389.113L393.69 393.689L396.436 400.097L399.182 409.251L401.013 418.404L402.843 427.558L404.674 435.796L406.505 445.865L408.335 455.934L411.082 468.749L412.912 482.479L414.743 490.718L415.658 499.871L416.574 506.279M353.414 364.398L379.959 342.429L379.044 335.106V329.614L379.959 323.207L383.621 319.545L387.282 314.968L390.028 310.392L390.944 306.73L391.859 303.984V302.153L395.52 300.323L401.013 296.661L405.589 293.915L407.42 292.084L409.251 294.831L411.082 297.577L411.997 300.323V303.984M411.997 303.984V305.815L409.251 309.476L404.674 314.053L400.097 317.715L394.605 321.376M411.997 303.984L415.658 303.069L421.15 302.153H427.558L433.05 303.069L441.288 305.815L448.611 308.561L455.019 311.307L457.765 313.138M457.765 313.138L456.85 315.884V317.715L457.765 322.291L458.68 325.037L460.511 329.614L462.342 332.36L466.003 336.022L470.58 339.683M457.765 313.138L460.511 312.222H462.342H465.088H466.003M466.003 312.222V314.053L466.919 315.884L467.834 317.715L468.749 321.376L470.58 324.122L474.241 327.784L476.987 330.53L478.818 332.36M466.003 312.222L466.919 310.392V307.646L467.834 304.9L468.749 301.238L469.665 299.407L473.326 302.153L477.903 304.9L484.31 307.646L491.633 308.561L503.533 309.476H512.687H522.756L530.078 308.561L537.401 307.646L538.317 306.73V314.053L536.486 325.953L535.571 332.36L532.824 338.768L528.248 348.837L522.756 357.075L515.433 366.229L509.025 370.805L502.618 375.382L493.464 380.874L485.226 384.536L477.903 386.367L470.58 388.197L465.088 389.113L451.357 390.028H444.95M444.95 390.028L427.558 359.821M464.172 441.288L459.596 435.796L452.273 429.389L444.035 423.896L435.796 420.235L430.304 419.32" stroke="black" stroke-opacity="0.6" stroke-width="0.5" stroke-linejoin="round"/>
<g style="mix-blend-mode:multiply">
<path d="M223.433 507.194L229.84 492.548L235.332 478.818L239.909 463.257L243.571 448.611L248.147 427.558L250.893 411.081L252.724 395.52L242.655 406.505L231.671 416.574L219.771 426.642L206.956 433.965L196.887 437.627L186.818 439.458H179.495L169.426 437.627L159.357 433.965L150.204 428.473L140.135 421.15L133.727 414.743L128.235 408.335L123.658 401.012L119.997 395.52L116.335 390.028H119.082H125.489L126.404 391.859L128.235 394.605L131.897 401.928L135.558 406.505L139.219 411.997L144.712 416.574L152.035 422.066L160.273 425.727L168.511 428.473H178.58L186.818 427.558L196.887 425.727L206.956 419.32L210.618 415.658L217.94 408.335L230.756 391.859L234.417 385.451L236.248 380.874H238.078L239.909 382.705H244.486L251.809 380.874L255.47 378.128L260.962 372.636L265.539 368.059L269.201 363.483L268.285 371.721L260.962 383.621L263.708 380.874L262.793 385.451V390.028L263.708 394.605L265.539 398.266L267.37 400.097L270.116 402.843L271.947 404.674L264.624 415.658L259.132 428.473L252.724 439.458L253.64 448.611V460.511L254.555 473.326L257.301 482.479L265.539 498.041L272.862 506.279L282.931 515.432L292.085 520.925L304.9 526.417L315.884 530.078L296.661 528.247L282.016 526.417L267.37 523.671L256.386 520.925L248.147 518.179L237.163 514.517L226.179 509.94L223.433 507.194Z" fill="#BDD5D5"/>
<path d="M236.248 314.968L233.502 316.799L234.417 320.461L238.078 323.207L244.486 326.868L253.64 330.53L260.962 332.36L279.27 335.106L290.254 336.022L300.323 337.852L285.677 331.445L280.185 327.784L276.524 324.122L274.693 319.545L273.777 314.968L271.031 313.138L265.539 310.392L260.962 307.646L257.301 304.9L252.724 302.153V312.222L241.74 313.138L236.248 314.968Z" fill="#BDD5D5"/>
<path d="M522.756 310.392H512.687H506.837L505.364 314.968L502.618 318.63L498.956 322.291L493.464 325.953L483.395 329.614L477.903 330.53H474.241L476.072 335.106L474.241 338.768L471.495 340.599H468.749H466.919V347.006L465.088 354.329L460.511 358.906L448.611 362.567H438.542L431.219 358.906L426.643 354.329L429.389 362.567L433.966 374.467L440.373 385.451L444.95 390.943H451.357L465.088 390.028L470.58 389.113L477.903 387.282L485.226 385.451L493.464 381.79L502.618 376.298L509.025 371.721L515.433 367.144L522.756 357.99L528.248 349.752L532.824 339.683L535.571 333.276L536.486 326.868L538.317 314.968V307.646L537.401 308.561L530.078 309.476L522.756 310.392Z" fill="#BDD5D5"/>
<path d="M389.113 305.815L388.198 309.476L390.028 308.561L394.605 306.73L398.266 303.069L402.843 300.323L405.589 297.577L406.505 294.831L404.674 292.084L401.013 294.831L397.351 297.577L391.859 300.323L389.113 302.153V305.815Z" fill="#BDD5D5"/>
</g>
<path d="M296.662 390.944L292.085 388.197L293.915 385.451L296.662 383.621L299.408 381.79L301.238 379.044L302.154 376.298V370.806L303.069 365.313L303.984 360.737L305.815 356.16L307.646 352.498L311.307 348.837L314.969 346.091L319.546 344.26L324.122 342.429L328.699 341.514L333.276 342.429L334.191 340.599L336.022 337.853L337.853 336.022L340.599 334.191L344.26 333.276H347.922H349.752L352.499 334.191L355.245 336.022L356.16 335.107L358.906 333.276L361.652 331.445L364.398 330.53H368.06L370.806 331.445L373.552 333.276L375.383 335.107L377.213 337.853L379.959 336.937L386.367 336.022H393.69L401.928 339.683L406.505 344.26L412.912 352.498L416.574 358.906L421.151 366.229L423.897 369.89L429.389 373.552L432.135 374.467V375.382L429.389 378.129L423.897 380.875L414.743 384.536H406.505L395.52 382.705L384.536 379.044L377.213 373.552L371.721 367.144L369.89 361.652H368.06L358.906 363.483H345.176V366.229L344.26 370.806L342.43 375.382L338.768 380.875L334.191 386.367L327.784 390.944L318.63 393.69H305.815L296.662 390.944Z" fill="#DE1A09" stroke="black" stroke-opacity="0.6" stroke-width="0.5" stroke-linejoin="round"/>
<path d="M296.662 390.944L292.085 388.198L293.915 385.451L296.662 383.621L299.408 381.79L301.238 379.044L302.154 376.298V370.806L303.069 365.314L303.984 360.737V367.144V370.806V374.467V378.129L303.069 380.875L301.238 382.705L300.323 384.536L303.984 385.451H308.561L313.138 384.536L321.376 381.79L327.784 377.213L334.191 369.89L337.853 363.483L339.683 358.906L344.26 362.567L345.176 363.483H358.906L368.06 361.652H369.89L371.721 360.737L374.467 358.906L379.044 355.245L379.959 351.583L380.875 347.006H382.705L386.367 347.922L389.113 349.752L391.859 351.583L395.52 356.16L399.182 359.821L402.843 363.483L407.42 368.06L411.082 370.806L417.489 373.552H415.658L409.251 372.636L401.928 368.975L397.351 365.314L393.69 361.652L390.028 357.991L384.536 353.414L379.959 351.583L379.044 355.245L374.467 358.906L376.298 362.567L383.621 368.975L390.028 372.636L396.436 375.383L402.843 377.213L411.997 378.129L422.981 379.044L429.389 378.129L423.897 380.875L414.743 384.536H406.505L395.52 382.705L384.536 379.044L377.213 373.552L371.721 367.144L369.89 361.652H368.06L358.906 363.483H345.176V366.229L344.26 370.806L342.43 375.383L338.768 380.875L334.191 386.367L327.784 390.944L318.63 393.69H305.815L296.662 390.944Z" fill="#7A0D04"/>
<path d="M376.298 335.107L378.128 337.853L380.875 343.345V346.091V350.668L379.044 355.245L372.636 360.737L365.313 363.483H356.16H347.922L344.26 360.737L340.599 357.991L335.107 352.498L334.191 347.922V342.429L335.107 340.599L336.937 337.853V341.514L338.768 346.091L343.345 350.668L347.006 353.414L351.583 355.245H359.821H366.229L372.636 352.911L376.298 348.837L379.044 345.176L378.128 337.853L376.298 335.107L374.467 333.276L371.721 331.445L368.975 330.53H365.313L362.567 334.191L363.483 338.768L364.398 342.429V346.091V350.668L362.567 346.091L359.821 340.599L356.16 336.022L357.075 335.107L359.821 333.276L362.567 331.445L365.313 330.53H368.975L371.721 331.445L374.467 333.276L376.298 335.107Z" fill="#7A0D04"/>
<path d="M240.824 197.802L234.417 205.125H232.586L223.433 202.379H215.194L209.702 203.295L205.125 205.125L199.633 207.871L195.972 210.617L193.226 215.194L192.31 218.856L191.395 223.432V228.925L193.226 236.247L195.972 242.655L199.633 248.147L205.125 253.639L209.702 257.301L215.194 260.047L220.687 260.962H226.179L230.756 260.047L235.332 257.301L234.417 260.962L233.502 268.285L235.332 273.777L238.078 281.1L243.571 289.338L251.809 297.577L259.132 303.984L267.37 308.561L281.1 313.138L294.831 314.968H305.815L316.799 315.884H323.207L327.784 317.715L332.361 319.545L340.599 325.037L347.006 327.784L355.245 328.699L364.398 327.784L373.552 325.037L383.621 317.715L388.198 311.307L390.028 305.815L390.944 300.323L391.859 298.492L395.52 296.661L402.843 291.169L411.082 285.677L418.404 278.354L422.066 272.862L431.219 217.94L426.643 206.956L422.981 199.633L415.658 191.395L410.166 186.818L401.928 183.157L396.436 182.241L394.605 179.495L388.198 171.257L379.959 161.188L370.806 148.373L357.075 147.458L342.43 148.373L327.784 150.204L313.138 152.95L295.746 159.357L279.27 168.511L267.37 175.834L256.386 184.072L248.147 191.395L240.824 197.802Z" fill="#FBD4B2" stroke="black" stroke-opacity="0.6" stroke-width="0.5" stroke-linejoin="round"/>
<path d="M393.69 298.492L401.013 294.831L404.674 293L410.166 287.508L415.658 281.1L410.166 284.762L404.674 289.339L396.436 293C396.436 293 390.31 295.253 388.198 298.492C387.146 300.105 386.367 303.069 386.367 303.069L383.621 308.561C383.621 308.561 381.729 312.694 379.959 314.969C378.407 316.964 375.382 319.545 375.382 319.545C375.382 319.545 371.764 322.827 368.975 324.122C366.615 325.219 365.136 325.535 362.567 325.953C359.039 326.527 353.414 325.953 353.414 325.953L343.345 324.122L336.022 317.715L330.53 313.138C330.53 313.138 330.265 312.223 325.953 310.392C321.376 309.653 318.695 310.608 314.053 310.392C305.771 310.006 293 307.646 293 307.646L279.27 305.815C279.27 305.815 270.46 303.346 265.539 300.323C257.998 295.69 254.83 291.248 249.978 283.846C247.96 280.768 245.401 275.608 245.401 275.608C245.401 275.608 241.108 269.268 239.909 264.624C238.48 259.086 239.909 249.978 239.909 249.978L238.078 251.809L231.671 255.47L222.517 257.301L213.364 255.47L205.125 251.809L199.633 244.486L195.972 236.248L193.226 227.094V217.94L191.395 224.348V228.925L193.226 236.248L195.972 242.655L200.549 249.063L203.295 251.809L207.872 255.47L213.364 259.132L219.771 260.962H226.179L231.671 259.132L235.332 257.301L234.417 264.624V270.116L236.248 275.608L239.909 283.846L244.486 290.254L253.64 299.408L260.962 305.815L268.285 310.392L279.27 314.969L293 316.799H303.984L314.969 317.715H321.376L325.953 319.545L330.53 321.376L338.768 326.868L345.176 329.614L353.414 330.53L362.567 329.614L371.721 326.868L381.79 319.545L386.367 313.138C386.367 313.138 388.385 310.514 389.113 308.561C389.872 306.524 390.028 303.069 390.028 303.069L390.944 300.323L393.69 298.492Z" fill="#F2A77F"/>
<path d="M239.909 210.618L233.501 206.041L239.909 197.803L246.317 192.31L253.639 186.818L271.031 173.088L271.947 174.919V182.241V186.818V194.141L271.031 196.887L269.201 201.464L267.37 206.041V210.618V214.279L268.285 217.941L279.269 228.925L282.016 231.671V233.502L279.269 237.163L274.693 241.74L270.116 245.401L263.708 251.809L259.132 255.47L256.385 260.963V255.47L254.555 244.486L249.978 230.756L247.232 223.433L244.486 217.025L239.909 210.618Z" fill="#5F3622" stroke="black" stroke-opacity="0.6" stroke-width="0.5" stroke-linejoin="round"/>
<path d="M334.191 239.909V231.671L336.937 236.247L341.514 238.078C341.514 238.078 345.998 238.422 348.837 238.078C351.763 237.723 353.241 236.659 356.16 236.247C360.053 235.698 366.229 236.247 366.229 236.247C366.229 236.247 375.111 238.036 380.875 238.078C386.993 238.123 396.436 236.247 396.436 236.247C396.436 236.247 401.263 233.938 403.759 231.671C406.404 229.267 407.777 227.605 409.251 224.348C410.466 221.662 410.166 219.771 410.166 219.771L411.081 224.348C411.081 224.348 411.23 228.922 410.166 231.671C408.305 236.479 407.919 237.78 403.759 240.824C400.382 243.295 397.798 245.526 393.69 246.316C388.775 247.262 380.875 248.147 380.875 248.147C380.875 248.147 372.901 246.607 367.144 246.316C363.217 246.118 360.83 245.15 357.075 246.316C353.855 247.317 348.837 249.063 348.837 249.063C348.837 249.063 346.591 251.093 345.175 250.893C341.531 250.38 336.937 245.401 336.937 245.401L334.191 239.909Z" fill="#F1A784"/>
<path d="M239.909 210.618L233.501 206.041L239.909 197.803L242.655 195.057V196.887L240.824 202.38L239.909 206.041L243.57 207.872L248.147 209.702L251.809 216.11L253.639 222.517L254.555 227.094L257.301 235.333L259.132 238.994L261.878 243.571L264.624 245.401L267.37 249.063L263.708 251.809L259.132 255.47L256.385 260.963V255.47L254.555 244.486L249.978 230.756L247.232 223.433L244.486 217.025L239.909 210.618Z" fill="#391E13"/>
<path d="M289.339 184.988L287.508 191.395L286.593 185.903L288.423 180.411L291.169 174.919L294.831 169.427L299.408 164.85L303.069 162.104L307.646 160.273H311.307L314.053 161.188L314.969 163.934L314.053 165.765L310.392 166.68L304.9 169.427L299.408 174.003L293.915 180.411L289.339 184.988Z" fill="#5A3428"/>
<path d="M336.937 162.104H339.683H347.922H354.329L361.652 163.019L367.144 163.934L372.636 166.68L370.806 164.85L367.144 161.188L362.567 158.442L357.991 156.611L352.498 155.696L346.091 154.781H339.683L336.022 155.696L335.107 156.611V159.358V161.188L336.937 162.104Z" fill="#5A3428"/>
<path d="M289.339 184.988L287.508 191.395L286.593 185.903L288.423 180.411L291.169 174.919L294.831 169.427L299.408 164.85L303.069 162.104L307.646 160.273H311.307L314.053 161.188L314.969 163.934L314.053 165.765L310.392 166.68L304.9 169.427L299.408 174.003L293.915 180.411L289.339 184.988Z" stroke="black" stroke-opacity="0.6" stroke-width="0.5" stroke-linejoin="round"/>
<path d="M336.937 162.104H339.683H347.922H354.329L361.652 163.019L367.144 163.934L372.636 166.68L370.806 164.85L367.144 161.188L362.567 158.442L357.991 156.611L352.498 155.696L346.091 154.781H339.683L336.022 155.696L335.107 156.611V159.358V161.188L336.937 162.104Z" stroke="black" stroke-opacity="0.6" stroke-width="0.5" stroke-linejoin="round"/>
<path d="M314.053 238.994L318.63 238.078L311.307 237.163H306.73L302.154 238.994L298.492 241.74L295.746 244.486L293 249.063L292.085 253.639V257.301V263.708L293.915 269.2L296.662 274.693L300.323 279.269L306.73 283.846L314.053 287.508L322.292 290.254L330.53 291.169H340.599L347.922 290.254L358.906 287.508L367.144 283.846L371.721 280.185L377.213 274.693L381.79 276.523L387.282 279.269L393.69 282.016L399.182 282.931H406.505L412.912 282.016L418.404 281.1L422.981 279.269L427.558 277.439L431.22 274.693L434.881 271.947L438.542 267.37L442.204 262.793L444.95 257.301L445.865 252.724L446.781 249.063V245.401L445.865 240.824L444.95 236.247L442.204 231.671L438.542 227.094L434.881 224.348L430.304 222.517H427.558L423.897 224.348H425.727L427.558 225.263L429.389 227.094L431.22 228.925L432.135 230.755V233.501V236.247L431.22 238.994L429.389 241.74L427.558 243.57L424.812 245.401L422.066 246.316H418.404H412.912L409.251 245.401L406.505 243.57L404.674 241.74H402.843L400.097 243.57L397.351 245.401L392.774 246.316L387.282 247.232L382.705 248.147L379.044 247.232L374.467 246.316L365.314 245.401H359.821L352.499 246.316L347.922 248.147L343.345 249.978L340.599 253.639L337.853 256.385L333.276 260.047L328.699 261.878L322.292 262.793H318.63L314.969 261.878L312.223 260.047L308.561 257.301L306.73 253.639L305.815 249.978L306.73 245.401L307.646 242.655L310.392 239.909L314.053 238.994Z" fill="#5F3726" stroke="black" stroke-opacity="0.6" stroke-width="0.5" stroke-linejoin="round"/>
<path d="M427.558 277.439L431.22 274.692L425.727 275.608L419.32 277.439H410.166H401.013L392.774 275.608L385.451 271.946L379.959 270.116L381.79 265.539L383.621 259.131V252.724H388.198L392.774 251.808L396.436 250.893L401.013 248.147L402.843 244.486L403.354 241.901L396.947 245.563L392.774 247.232L382.705 248.147L376.298 247.232L370.806 246.316L362.567 245.401L354.329 246.316L347.006 249.062L354.329 250.893L360.737 251.808L366.229 252.724L370.806 253.639L379.044 254.555V258.216L376.298 263.708L372.636 270.116L367.144 276.523L360.737 282.015L352.499 285.677L344.26 287.508H334.191H329.614L321.376 285.677L313.138 282.015L306.73 277.439L303.069 273.777L300.323 269.2L297.577 264.624L295.746 260.047L293.915 251.808L292.085 257.301V261.877L293.915 269.2L296.662 274.692L300.323 279.269L306.73 283.846L314.053 287.508L322.292 290.254L330.53 291.169L342.43 292.084L348.837 291.169L359.821 287.508L364.398 285.677L367.144 283.846L372.636 280.185L377.213 274.692L381.79 277.439L387.282 279.269L393.69 282.015L399.182 282.931H406.505L412.912 282.015L418.404 281.1L422.981 279.269L427.558 277.439Z" fill="#3E1A15"/>
<g filter="url(#filter0_d_1352_6483)">
<path d="M305.815 219.771L301.238 220.687L297.577 214.279L295.746 206.956V201.464L296.661 192.31L298.492 184.988L301.238 179.495L304.9 175.834L309.477 174.003H312.223L316.799 174.919L320.461 179.495L323.207 183.157L325.038 188.649L325.953 194.141V201.464V206.956L325.038 211.533L323.207 216.11L322.292 220.687H320.461L312.223 219.771H305.815Z" fill="#FEFFFD"/>
<path d="M357.991 204.21L361.652 206.041L362.567 205.125L366.229 203.295L369.89 202.379L374.467 201.464H378.129H382.705V200.549L381.79 194.141L379.959 189.564L377.213 184.072L371.721 177.665L367.144 173.088L360.737 169.426L354.329 167.596H348.837L345.176 168.511L342.429 171.257L340.599 174.919V181.326L342.429 185.903L345.176 191.395L349.752 197.803L353.414 201.464L357.991 204.21Z" fill="#FEFFFD"/>
<path d="M305.815 219.771L301.238 220.687L297.577 214.279L295.746 206.956V201.464L296.661 192.31L298.492 184.988L301.238 179.495L304.9 175.834L309.477 174.003H312.223L316.799 174.919L320.461 179.495L323.207 183.157L325.038 188.649L325.953 194.141V201.464V206.956L325.038 211.533L323.207 216.11L322.292 220.687H320.461L312.223 219.771H305.815Z" stroke="black" stroke-opacity="0.6" stroke-width="0.5" stroke-linejoin="round"/>
<path d="M357.991 204.21L361.652 206.041L362.567 205.125L366.229 203.295L369.89 202.379L374.467 201.464H378.129H382.705V200.549L381.79 194.141L379.959 189.564L377.213 184.072L371.721 177.665L367.144 173.088L360.737 169.426L354.329 167.596H348.837L345.176 168.511L342.429 171.257L340.599 174.919V181.326L342.429 185.903L345.176 191.395L349.752 197.803L353.414 201.464L357.991 204.21Z" stroke="black" stroke-opacity="0.6" stroke-width="0.5" stroke-linejoin="round"/>
</g>
<path d="M209.702 225.264L212.448 222.517L216.11 221.602H222.517L229.84 223.433L233.502 226.179L238.078 230.756L239.909 236.248L238.994 242.655L236.248 245.401C235.332 245.401 233.318 245.401 232.586 245.401C231.854 245.401 230.45 243.571 229.84 242.655L228.925 239.909V237.163L229.84 234.417L231.671 231.671H234.417L237.163 232.586L238.078 235.333V240.825L237.163 243.571L234.417 247.232L230.755 248.148H227.094L223.433 246.317L220.686 242.655L219.771 239.909L218.856 236.248L219.771 232.586L221.602 229.84L222.517 228.01M302.154 220.687L305.815 219.771L311.307 218.856H318.63L324.122 219.771L330.53 221.602L336.022 224.348L337.853 225.264M337.853 225.264L336.022 228.01L334.191 230.756L333.276 234.417V238.079L334.191 241.74L336.937 245.401L339.683 247.232L341.514 249.063L344.26 249.978L347.922 248.148H350.668L354.329 246.317L357.991 245.401H361.652C362.872 245.401 365.496 245.401 366.229 245.401C366.961 245.401 370.806 246.012 372.636 246.317L380.875 247.232H384.536L395.52 246.317L401.012 242.655L405.589 238.994L408.335 236.248L410.166 231.671L411.081 226.179V222.517L410.166 217.941L407.42 212.449L402.843 206.956L398.266 204.21L392.774 202.38L385.451 200.549H380.875L374.467 201.464L369.89 202.38L366.229 204.21L361.652 206.041M337.853 225.264L340.599 224.348L343.345 223.433L346.091 222.517L349.752 221.602H353.414L357.075 222.517L362.567 224.348L366.229 226.179L368.06 227.094M354.329 317.715L357.991 318.63L362.567 319.546L367.144 318.63L369.89 317.715L371.721 315.884L374.467 314.054" stroke="black" stroke-opacity="0.6" stroke-width="0.5" stroke-linejoin="round"/>
<path d="M245.401 195.056L235.332 206.956L232.586 199.633L230.756 194.141L228.925 183.157L228.009 174.919L227.094 173.088L225.263 171.257L217.025 176.749L210.618 178.58L201.464 179.495H186.818L179.495 177.665L171.257 174.003L165.765 170.342L160.273 165.765L154.781 158.442L151.119 152.034L149.288 145.627L147.458 138.304L148.373 130.066L149.288 123.658L151.119 119.082L152.95 114.505L155.696 109.928L160.273 104.436L164.85 98.9436L170.342 94.3668L175.834 90.7053L181.326 87.0439L186.818 84.2978L195.057 80.6364L199.633 79.721L208.787 77.8903L222.517 75.1442L226.179 74.2288L233.502 71.4828L238.078 68.7367L241.74 66.906L247.232 62.3292L250.894 57.7523L257.301 49.5141L262.793 42.1912L269.201 34.8683L274.693 29.3762L280.185 22.9687L287.508 18.3918L294.831 13.815L302.154 9.23825L310.392 6.49216L319.546 3.74608L331.445 1.91536L340.599 1H347.922L355.245 1.91536L363.483 4.66144L371.721 9.23825L379.959 15.6458L385.451 22.0533L390.944 33.953L392.774 39.4451L394.605 46.768V55.0063V60.4984V68.7367L393.69 74.2288L391.859 81.5517L390.028 87.0439L385.451 94.3668L381.79 99.8589L378.129 103.52L373.552 108.097L366.229 111.759L358.906 114.505L349.752 117.251L351.583 119.997L357.075 127.32L360.737 132.812L369.89 148.373V150.204H354.329H338.768L325.038 151.819L323.207 152.034L303.069 158.442L282.931 168.511L279.705 170.527L268.285 177.665L257.301 184.987L249.063 191.958L245.401 195.056Z" fill="white"/>
<path d="M245.401 195.056L235.332 206.956L232.586 199.633L230.756 194.141L228.925 183.157L228.009 174.918L227.094 173.088L225.263 171.257M245.401 195.056L243.571 193.226L241.74 189.564L240.825 184.987M245.401 195.056L249.063 191.958M354.329 150.204H338.768L325.038 151.819M354.329 150.204H369.89V148.373L360.737 132.812L357.075 127.32L351.583 119.997L349.752 117.251M354.329 150.204L352.499 146.542L349.752 141.966L345.176 132.812L340.599 123.658M349.752 117.251L358.906 114.505L366.229 111.759L373.552 108.097L378.129 103.52L381.79 99.8589L385.451 94.3668L390.028 87.0439L391.859 81.5517L393.69 74.2288L394.605 68.7367V60.4984V55.0063V46.768L392.774 39.4451L390.944 33.953L385.451 22.0533L379.959 15.6458L371.721 9.23824L363.483 4.66144L355.245 1.91536L347.922 1H340.599L331.445 1.91536L319.546 3.74608L310.392 6.49216L302.154 9.23824L294.831 13.815L287.508 18.3918L280.185 22.9687L274.693 29.3762L269.201 34.8683L262.793 42.1912L257.301 49.5141L250.894 57.7524L247.232 62.3292M349.752 117.251H343.345H332.361L314.969 118.166L307.646 119.997L301.238 123.658L296.662 127.32M247.232 62.3292L241.74 69.652L233.502 77.8903L224.348 85.2132L216.11 88.8746M247.232 62.3292L241.74 66.906L238.078 68.7367L233.502 71.4828L226.179 74.2288L222.517 75.1442L208.787 77.8903L199.633 79.721L195.057 80.6364L186.818 84.2978L181.326 87.0439L175.834 90.7053L170.342 94.3668L164.85 98.9436L160.273 104.436L155.696 109.928L152.95 114.505L151.119 119.082L149.288 123.658L148.373 130.066L147.458 138.304L149.288 145.627L151.119 152.034L154.781 158.442L160.273 165.765L165.765 170.342L171.257 174.003L179.495 177.665L186.818 179.495H201.464L210.618 178.58L217.025 176.749L225.263 171.257M225.263 171.257L231.671 164.85L238.994 155.696L246.317 146.542L250.894 141.05M249.063 191.958L257.301 184.987L268.285 177.665L279.705 170.527M249.063 191.958L246.317 189.564L244.486 185.903L243.571 182.241L242.655 178.58L241.74 173.088V170.342M279.705 170.527L282.931 168.511L303.069 158.442L323.207 152.034L325.038 151.819M279.705 170.527L277.439 167.596L275.608 163.019L273.778 157.527L272.862 153.865L271.947 150.204L271.031 147.458M316.799 133.727L319.546 139.219L322.292 143.796L324.122 148.373L325.038 151.819" stroke="black" stroke-opacity="0.6" stroke-width="0.5" stroke-linejoin="round"/>
<path d="M18.3918 287.508L26.6301 282.931L25.7147 285.677L20.2226 289.339L15.6458 293L11.069 296.662L7.40752 301.238L6.49216 307.646V314.053L9.23825 318.63L13.815 324.122L22.0533 330.53L36.6991 336.937L46.768 341.514L64.1599 346.091L78.8056 348.837L90.7053 350.668L106.266 352.499L117.251 353.414H128.235H141.05L152.95 352.499L163.934 351.583L174.919 349.752L184.987 347.922L195.972 344.26L205.125 341.514L214.279 336.022L219.771 332.361L224.348 328.699L227.094 325.038L228.009 318.63L226.179 312.223L223.433 306.731L216.11 299.408L209.702 294.831V292.085L212.448 293L217.94 296.662L222.517 300.323L227.094 304.9L230.755 309.477L233.502 316.799V325.038L230.755 332.361L224.348 337.853L217.94 343.345L206.956 348.837L196.887 352.499L184.072 355.245L172.172 357.991L159.357 359.821L141.05 360.737H126.404H109.013L91.6207 357.991L75.1442 356.16L56.837 351.583L39.4451 346.091L25.7147 340.599L13.815 333.276L4.66144 325.038L1 315.884V306.731L3.74608 300.323L11.069 293L18.3918 287.508Z" fill="#B3BCC1" stroke="black" stroke-opacity="0.6" stroke-width="0.5" stroke-linejoin="round"/>
<path d="M216.11 298.492L208.787 294.831L210.618 299.407L211.533 304.9V308.561V314.969L206.956 320.461L195.056 328.699L184.987 332.36L172.172 335.107L156.611 336.937H152.035H141.05H130.981H117.251L106.266 336.022L94.3668 334.191L85.2132 333.276L76.0596 331.445L62.3292 327.784L53.1756 325.038L45.8527 321.376L34.8684 316.799L28.4608 311.307L25.7148 303.984C25.4096 301.543 24.7994 296.478 24.7994 295.746C24.7994 295.014 25.4096 291.779 25.7148 290.254V284.762L20.2226 288.423L15.6458 292.085L11.069 295.746L7.40755 300.323L6.49219 306.73V313.138L9.23827 317.715L13.8151 323.207L22.0533 329.614L36.6991 336.022L46.7681 340.599L64.1599 345.176L78.8057 347.922L90.7054 349.752L106.266 351.583L117.251 352.498H128.235H141.05L152.95 351.583H163.934L174.919 349.752L185.903 347.922L196.887 344.26L205.125 341.514L215.194 336.022L221.602 330.53L225.263 327.784L227.094 324.122L228.009 317.715L226.179 311.307L223.433 305.815L216.11 298.492Z" fill="#647074"/>
<path d="M152.95 352.498L163.623 351.609L139.219 350.668L121.828 349.752L92.5361 347.922C92.5361 347.922 80.1058 346.378 72.3981 344.26C66.184 342.553 56.837 338.768 56.837 338.768L39.4452 331.445L28.4608 325.038C28.4608 325.038 22.1294 321.319 19.3072 317.715C17.5305 315.445 16.3332 314.106 15.6458 311.307C15.0489 308.877 15.2247 307.366 15.6458 304.9C16.0263 302.671 17.4765 299.407 17.4765 299.407L19.3072 295.746L25.7148 284.762L20.2226 288.423C18.3919 289.644 14.5474 293 13.8151 293L10.1536 296.661L7.40755 300.323L6.49219 304.9V307.646V314.053L9.23827 318.63L13.8151 324.122L22.0533 330.53L36.6991 336.937L46.768 341.514L64.1599 346.091L78.8057 348.837L90.7054 350.668L106.266 352.498L117.251 353.414H128.235H141.05L152.95 352.498Z" fill="#464E50"/>
<g style="mix-blend-mode:multiply">
<path d="M245.401 195.056L235.332 206.956L232.586 199.633L230.756 194.141L228.925 183.157L228.009 174.919L227.094 173.088L225.263 171.257L217.025 176.749L210.618 178.58L201.464 179.495H186.818L179.495 177.665L171.257 174.003L165.765 170.342L160.273 165.765L154.781 158.442L151.119 152.035L149.288 145.627L147.458 138.304V129.151L152.035 138.304L161.188 148.373L172.172 155.696L184.988 163.019L196.887 164.85L217.025 163.934L231.671 154.781L242.655 145.627L250.894 141.05L246.317 146.542L245.584 147.458L243.571 158.442L244.486 170.342L249.978 178.58L259.132 183.767L268.285 177.665L279.705 170.527L282.931 168.511L303.069 158.442L323.207 152.035L325.038 151.819L338.768 150.204H354.329H369.89V148.373L360.737 132.812L357.075 127.32L354.637 124.069L350.668 124.574L342.43 123.658L335.107 121.828L327.784 120.912L320.461 119.997H314.053H307.646L301.238 123.658L296.662 127.32L299.408 120.912L304.9 115.42L314.969 109.928L325.953 106.266L338.768 103.52L351.583 99.859L361.652 94.3668L370.806 87.0439L380.875 76.0596L385.451 68.7367L390.028 60.4985L391.859 53.1756L394.605 46.7681V55.0063V60.4985V68.7367L393.69 74.2289L391.859 81.5518L390.028 87.0439L385.451 94.3668L381.79 99.859L378.129 103.52L373.552 108.097L366.229 111.759L358.906 114.505L349.752 117.251L351.583 119.997L354.637 124.069L357.075 127.32L360.737 132.812L369.89 148.373V150.204H354.329H338.768L325.038 151.819L323.207 152.035L303.069 158.442L282.931 168.511L279.705 170.527L268.285 177.665L259.132 183.767L257.301 184.987L249.063 191.958L245.401 195.056Z" fill="#BED3D3"/>
</g>
<path d="M25.7147 289.338V285.677L31.2068 275.608L38.5297 263.708L52.2601 251.809L60.4984 245.401L69.652 239.909L79.7209 236.248L92.536 233.501L104.436 231.671L119.081 230.755L134.643 231.671L140.135 233.501L150.204 236.248L158.442 238.994L172.172 247.232L184.072 255.47L194.141 264.624L204.21 279.269L206.956 286.592L208.787 294.831L210.617 299.407L211.533 308.561V315.884L206.956 321.376L195.056 329.614L184.987 333.276L172.172 336.022L155.696 337.853H133.727H118.166L100.774 336.022L81.5517 333.276L68.7366 330.53L55.9216 326.868L47.6833 323.207L40.3604 320.461L34.8683 317.715L28.4608 312.222L25.7147 306.73L24.7993 300.323V294.831L25.7147 289.338Z" fill="#C1CCCE" stroke="black" stroke-opacity="0.6" stroke-width="0.5" stroke-linejoin="round"/>
<path d="M27.5455 289.338V285.677L33.0377 275.608L40.3605 263.708L54.0909 251.809L62.3292 245.401L71.4828 239.909L81.5518 236.248L94.3668 233.501L81.5518 239.909L71.4828 245.401L64.1599 253.639L55.0063 267.37L50.4295 276.523L47.6834 289.338L46.7681 299.407V310.392L50.4295 317.715L57.7524 323.207L69.6521 330.268L57.7524 326.868L49.5141 323.207L42.1913 320.461L36.6991 317.715L30.2916 312.222L27.5455 306.73L26.6301 300.323V294.831L27.5455 289.338Z" fill="#9EA9A9"/>
<path d="M120.912 235.332L119.997 233.502L120.912 231.671V229.84L119.997 228.009L118.166 226.179L116.773 223.433V221.602L118.166 218.856L119.997 217.025L121.828 216.11L126.404 215.194L129.15 216.11L131.897 217.025L134.643 218.856L136.473 221.602V224.348L135.558 226.179L133.727 228.009L131.897 228.925L130.981 230.755V232.586L131.897 233.502L130.981 235.332L130.066 236.248L128.235 237.163L126.404 238.078H124.574L122.743 237.163L120.912 235.332Z" fill="#97A7A9" stroke="black" stroke-opacity="0.6" stroke-width="0.5" stroke-linejoin="round"/>
<path d="M141.05 237.163L141.965 234.417L145.627 236.248L150.204 240.825L154.78 247.232L158.442 255.47L161.188 260.047L163.934 266.455L165.765 275.608L167.596 284.762L168.511 293.915L169.426 303.984V310.392L168.511 316.799L167.596 325.038L165.765 332.361L164.849 336.937L148.373 337.853V336.937L149.288 333.276L151.119 325.953L152.034 319.546L153.865 306.73V287.508V275.608L152.034 265.539L150.204 255.47L147.458 247.232L142.881 240.825L141.05 237.163Z" fill="#EBEFEE"/>
<path d="M157.527 243.571L152.95 238.079L159.357 239.909L170.342 246.317L174.003 249.978L176.749 255.47L181.326 261.878L186.818 272.862L190.48 282.016L193.226 292.085L194.141 297.577L195.057 308.561L194.141 314.969L193.226 323.207L192.31 327.784L190.48 331.445L170.342 336.022V334.191L172.173 328.699L174.919 315.884V296.662L173.088 283.847L170.342 272.862L167.596 262.793L161.188 249.978L157.527 243.571Z" fill="#EBEFEE"/>
<path d="M303.984 213.363L306.73 216.11L309.477 217.025L313.138 216.11L315.884 214.279L318.63 210.617L319.545 205.125V200.548V195.972L318.63 191.395L316.799 187.733L314.053 184.987L310.392 184.072L307.646 184.987L305.815 186.818L303.069 189.564L302.154 194.141L301.238 198.718V202.379V206.956L302.154 210.617L303.984 213.363Z" fill="#9E6110"/>
<path d="M368.975 203.294H366.229H365.314L359.821 199.633L356.16 195.972L353.414 192.31L351.583 187.733L350.668 184.072L351.583 180.41L353.414 177.664L356.16 176.749H359.821L362.567 177.664L365.314 179.495L368.06 181.326L372.636 185.903L375.382 189.564L377.213 193.226V196.887V199.633L376.298 200.548H374.467L371.721 201.464L368.975 203.294Z" fill="#9E6110"/>
<path d="M303.984 213.363L306.73 216.11L309.477 217.025L313.138 216.11L315.884 214.279L318.63 210.617L319.545 205.125V200.548V195.972L318.63 191.395L316.799 187.733L314.053 184.987L310.392 184.072L307.646 184.987L305.815 186.818L303.069 189.564L302.154 194.141L301.238 198.718V202.379V206.956L302.154 210.617L303.984 213.363Z" stroke="black" stroke-opacity="0.6" stroke-width="0.5" stroke-linejoin="round"/>
<path d="M368.975 203.294H366.229H365.314L359.821 199.633L356.16 195.972L353.414 192.31L351.583 187.733L350.668 184.072L351.583 180.41L353.414 177.664L356.16 176.749H359.821L362.567 177.664L365.314 179.495L368.06 181.326L372.636 185.903L375.382 189.564L377.213 193.226V196.887V199.633L376.298 200.548H374.467L371.721 201.464L368.975 203.294Z" stroke="black" stroke-opacity="0.6" stroke-width="0.5" stroke-linejoin="round"/>
<path d="M311.307 209.702L308.561 211.533L306.73 210.617L305.815 207.871L304.9 206.041V203.295V200.548L305.815 197.802L307.646 196.887H309.476L311.307 197.802L312.223 199.633L313.138 202.379V205.125L312.223 207.871L311.307 209.702Z" fill="#211605"/>
<path d="M361.652 195.056L359.821 193.226L358.906 192.31V189.564L359.821 187.733H361.652L364.398 188.649L367.144 189.564L368.975 191.395L369.89 194.141L370.806 195.972L369.89 197.802L368.975 198.718H367.144H365.313L363.483 196.887L361.652 195.056Z" fill="#211605"/>
<path d="M311.307 209.702L308.561 211.533L306.73 210.617L305.815 207.871L304.9 206.041V203.295V200.548L305.815 197.802L307.646 196.887H309.476L311.307 197.802L312.223 199.633L313.138 202.379V205.125L312.223 207.871L311.307 209.702Z" stroke="black" stroke-opacity="0.6" stroke-width="0.5" stroke-linejoin="round"/>
<path d="M361.652 195.056L359.821 193.226L358.906 192.31V189.564L359.821 187.733H361.652L364.398 188.649L367.144 189.564L368.975 191.395L369.89 194.141L370.806 195.972L369.89 197.802L368.975 198.718H367.144H365.313L363.483 196.887L361.652 195.056Z" stroke="black" stroke-opacity="0.6" stroke-width="0.5" stroke-linejoin="round"/>
<path d="M336.022 326.868L333.276 324.122L336.022 325.038L338.768 326.868L342.429 328.699L345.176 329.614L349.752 330.53H354.329L359.821 329.614L366.229 328.699L371.721 326.868L374.467 325.038L377.213 323.207L381.79 319.545L379.959 323.207L379.044 326.868V331.445V334.191V336.937L377.213 337.853L375.382 335.107L372.636 332.36L368.06 330.53H364.398L360.737 331.445L357.991 333.276L355.245 336.022L353.414 335.107L349.752 333.276H346.091H343.345H340.599L338.768 330.53L336.022 326.868Z" fill="#F1A37E" stroke="black" stroke-opacity="0.6" stroke-width="0.5" stroke-linejoin="round"/>
<path d="M336.937 299.408L330.53 292.085H337.853H346.091L351.125 290.712L356.16 289.339L364.398 286.593L372.636 281.101L377.213 275.608L379.959 277.439L386.367 280.185L390.944 282.016L385.451 290.254L382.705 296.662L379.044 303.069L374.467 307.646L367.144 310.392H357.075L349.752 307.646L342.429 303.985L336.937 299.408Z" fill="#F3514A"/>
<path d="M351.125 290.712L356.16 289.339L364.398 286.593L372.636 281.101L377.213 275.608L379.959 277.439L386.367 280.185L390.944 282.016L385.451 290.254L382.705 296.662L379.044 303.069L374.467 307.646L367.144 310.392H357.075L349.752 307.646L342.429 303.985L336.937 299.408L330.53 292.085H337.853H346.091L351.125 290.712ZM351.125 290.712L355.245 292.085L358.906 293L363.483 295.746L365.313 298.492L366.229 301.238" stroke="black" stroke-opacity="0.6" stroke-width="0.5" stroke-linejoin="round"/>
<path d="M385.451 290.254L382.705 296.662L375.382 293.916L364.398 293L356.16 292.085L348.837 291.17L356.16 289.339L364.398 286.593L372.636 281.101L377.213 275.608L379.959 277.439L386.367 280.185L390.944 282.016L385.451 290.254Z" fill="#550500"/>
<g filter="url(#filter1_f_1352_6483)">
<circle cx="309.477" cy="195.972" r="2.74608" fill="white"/>
</g>
<g filter="url(#filter2_f_1352_6483)">
<circle cx="361.652" cy="187.734" r="1.83072" fill="white"/>
</g>
<path d="M252.724 304.899V311.307L256.386 319.545L263.708 325.953L282.016 333.276L301.238 338.768L310.392 340.598" stroke="black" stroke-opacity="0.6" stroke-width="0.5" stroke-linejoin="round"/>
<defs>
<filter id="filter0_d_1352_6483" x="294.496" y="163.346" width="89.4592" height="57.5908" filterUnits="userSpaceOnUse" color-interpolation-filters="sRGB">
<feFlood flood-opacity="0" result="BackgroundImageFix"/>
<feColorMatrix in="SourceAlpha" type="matrix" values="0 0 0 0 0 0 0 0 0 0 0 0 0 0 0 0 0 0 127 0" result="hardAlpha"/>
<feOffset dy="-3"/>
<feGaussianBlur stdDeviation="0.5"/>
<feColorMatrix type="matrix" values="0 0 0 0 0.870588 0 0 0 0 0.678431 0 0 0 0 0.564706 0 0 0 1 0"/>
<feBlend mode="normal" in2="BackgroundImageFix" result="effect1_dropShadow_1352_6483"/>
<feBlend mode="normal" in="SourceGraphic" in2="effect1_dropShadow_1352_6483" result="shape"/>
</filter>
<filter id="filter1_f_1352_6483" x="306.23" y="192.726" width="6.49219" height="6.49219" filterUnits="userSpaceOnUse" color-interpolation-filters="sRGB">
<feFlood flood-opacity="0" result="BackgroundImageFix"/>
<feBlend mode="normal" in="SourceGraphic" in2="BackgroundImageFix" result="shape"/>
<feGaussianBlur stdDeviation="0.25" result="effect1_foregroundBlur_1352_6483"/>
</filter>
<filter id="filter2_f_1352_6483" x="359.321" y="185.403" width="4.66138" height="4.66162" filterUnits="userSpaceOnUse" color-interpolation-filters="sRGB">
<feFlood flood-opacity="0" result="BackgroundImageFix"/>
<feBlend mode="normal" in="SourceGraphic" in2="BackgroundImageFix" result="shape"/>
<feGaussianBlur stdDeviation="0.25" result="effect1_foregroundBlur_1352_6483"/>
</filter>
</defs>
</svg>
