<svg width="20" height="18" viewBox="0 0 20 18" fill="none" xmlns="http://www.w3.org/2000/svg">
<path d="M15.25 3.75H1.75C1.35218 3.75 0.970644 3.90804 0.68934 4.18934C0.408035 4.47064 0.25 4.85218 0.25 5.25V15.75C0.25 16.1478 0.408035 16.5294 0.68934 16.8107C0.970644 17.092 1.35218 17.25 1.75 17.25H15.25C15.6478 17.25 16.0294 17.092 16.3107 16.8107C16.592 16.5294 16.75 16.1478 16.75 15.75V5.25C16.75 4.85218 16.592 4.47064 16.3107 4.18934C16.0294 3.90804 15.6478 3.75 15.25 3.75ZM15.25 15.75H1.75V5.25H15.25V15.75ZM19.75 2.25V13.5C19.75 13.6989 19.671 13.8897 19.5303 14.0303C19.3897 14.171 19.1989 14.25 19 14.25C18.8011 14.25 18.6103 14.171 18.4697 14.0303C18.329 13.8897 18.25 13.6989 18.25 13.5V2.25H4C3.80109 2.25 3.61032 2.17098 3.46967 2.03033C3.32902 1.88968 3.25 1.69891 3.25 1.5C3.25 1.30109 3.32902 1.11032 3.46967 0.96967C3.61032 0.829018 3.80109 0.75 4 0.75H18.25C18.6478 0.75 19.0294 0.908035 19.3107 1.18934C19.592 1.47064 19.75 1.85218 19.75 2.25Z" fill="black"/>
</svg>
