<svg width="102" height="149" viewBox="0 0 102 149" fill="none" xmlns="http://www.w3.org/2000/svg">
<path fill-rule="evenodd" clip-rule="evenodd" d="M62.9383 35.426C63.0288 35.806 64.9623 39.2835 65.999 42.4554C66.8958 45.2225 67.6116 47.4362 68.8539 49.8399C70.5899 53.2018 75.4854 59.0665 78.3732 59.3886L80.3314 60.4459C86.7571 62.9322 90.3361 62.2631 96.877 62.1475C99.9047 62.0979 102.464 65.3689 100.752 68.4169C99.1725 71.2336 95.4783 70.9941 91.6525 70.961C80.6605 70.8867 71.7171 67.3679 64.9952 59.3721C64.3123 58.5626 63.1687 56.6215 62.4941 56.2332C62.2884 55.0355 61.2764 53.78 60.684 52.5327C60.2644 51.6571 59.4581 49.4599 59.0714 48.8735C58.1993 45.5612 57.0474 41.7037 55.0481 39.5395C51.1812 35.3434 41.9334 35.7894 38.8727 42.9097C37.688 45.6603 38.3297 49.7325 39.0867 52.7309L39.5556 53.8956C39.136 57.2988 44.1713 67.4918 46.5079 70.8454C53.271 80.5262 63.1358 84.8298 74.3911 87.1674C76.8676 87.6795 91.019 90.0502 92.6562 89.7363C94.6309 90.9918 97.9548 89.695 99.8142 92.5282C101.558 95.1797 99.9212 98.2772 97.5599 99.0041C96.0789 99.4584 90.9943 98.3351 89.1842 98.0872C75.4771 96.1957 62.9301 94.7419 51.8147 87.6465C44.4675 82.9547 37.9184 75.8097 33.6483 64.5677C31.8958 59.9503 29.7731 52.0123 29.6167 46.9076C29.4769 42.4636 30.9085 39.2587 33.0723 35.9629C34.0679 34.4596 34.6273 34.4678 35.3843 33.1297L35.5817 32.9893C37.8608 31.7915 38.3544 30.5277 42.353 29.2144C55.0646 25.0265 62.2555 34.9965 62.9548 35.4095L62.9383 35.426ZM91.3481 40.9025C83.9844 42.1332 86.3128 33.8153 79.2947 24.4731C59.4992 -1.88496 20.9943 6.26777 11.6807 35.2773C6.57961 51.1698 14.1736 63.5847 12.668 72.1257C12.0674 75.5206 9.79658 78.932 7.10617 80.3776C3.24745 82.4508 -0.734695 78.709 0.951953 75.025C2.06267 72.5965 4.82713 73.0921 4.34994 68.4417C4.29234 67.8717 4.18539 67.3101 4.0702 66.7566L3.5601 65.2533V64.3694C2.04623 55.4485 0.499444 48.7661 1.83231 39.8947C2.88543 32.9232 5.76509 26.0095 8.80928 21.516C12.3883 16.2377 15.7862 12.3637 21.9075 8.06022C27.494 4.13666 34.2571 1.54299 41.8676 0.34527C53.1887 -0.976349 65.168 1.48517 74.2183 7.9198C74.9506 8.44019 75.1563 8.44845 75.9379 9.15056C78.9903 11.8929 80.0023 12.0168 83.8363 16.436C85.6217 18.4927 87.5881 21.1608 89.0032 23.7544C90.6158 26.6868 91.6443 29.4457 92.8702 32.6919C94.5157 37.0698 95.2315 38.664 91.3481 40.9025ZM53.3368 14.3627C62.3871 16.6838 72.2931 19.1205 80.3232 40.1425C83.9104 49.6169 88.4273 47.7501 93.6847 47.3784C98.1522 47.0562 98.0782 51.2111 98.2757 52.8218C97.3624 53.8708 97.239 54.9612 95.6428 55.5972C94.4087 56.0845 92.105 56.3158 90.7475 56.3984C82.1414 56.9271 76.0119 52.351 72.581 43.8431C68.5907 33.9474 63.8269 23.5892 51.2799 22.8624C48.6306 22.0033 42.4929 23.1928 39.8765 24.1757C36.6431 25.3817 33.8046 27.298 31.7559 29.3218C27.9795 33.0553 24.1043 39.0026 24.1454 47.0149C23.8821 50.4759 25.1739 56.9684 25.865 60.4872C26.7947 65.2037 27.8972 72.0679 26.2517 77.1561C22.8948 77.3957 19.7108 78.2382 16.7982 79.5846C16.79 79.3368 16.7982 79.0807 16.8394 78.8164C17.1109 77.0405 18.0406 76.1649 18.3121 73.3482C19.0855 65.245 17.0697 62.4531 15.9755 52.797C14.3053 38.1436 19.5462 26.4885 31.7065 18.658C38.3873 14.3544 45.0516 13.8671 53.3368 14.3875V14.3627ZM52.2507 45.4207C53.7564 51.4341 53.8469 55.0933 57.7714 60.8754C60.5194 64.9229 64.1889 68.2021 68.1711 70.2259C72.4082 72.3735 76.991 73.819 82.4047 74.7855C85.0704 75.2563 87.6868 75.5619 90.4759 75.851C92.2696 76.0327 97.313 76.7018 98.6788 76.5944L99.7731 77.4783C102.9 79.9398 101.287 85.061 96.9263 85.0363C92.8373 85.0115 88.2216 83.9377 84.1819 83.7972L83.211 83.7725L82.1661 83.409C75.7815 82.0874 73.2886 81.947 66.4268 78.932C55.4513 74.1081 48.4825 65.3276 45.2656 53.623C44.3852 50.4181 43.0853 46.0485 44.9858 43.8761C45.8744 42.8601 47.6269 42.1497 49.2724 42.6123C50.8521 43.0501 51.5432 43.7274 52.2507 45.4207ZM59.6391 127.353C62.7327 128.294 77.1473 128.881 78.4226 129.558C80.1257 130.459 81.1048 132.458 80.4795 134.837C78.7517 138.405 76.0366 137.802 71.7336 137.414C68.3932 137.116 65.1927 136.67 61.8605 136.29C51.247 135.076 51.6748 135.753 43.1922 140.379C41.7853 141.147 40.3208 142.105 38.4614 141.692C37.0215 141.37 35.845 140.363 35.376 138.744C34.2406 134.861 37.7456 133.598 40.4031 132.094C43.1182 130.558 45.6276 129.054 48.861 128.047C53.3697 126.642 55.3278 127.237 59.6473 127.345L59.6391 127.353ZM60.4454 108.52L58.8246 107.991C58.3062 107.892 57.9195 107.826 57.393 107.727C56.8006 107.619 56.0519 107.504 55.369 107.355C55.4677 106.413 55.5171 105.455 55.5171 104.489C55.5171 102.465 55.2949 100.499 54.8836 98.5994C59.7296 99.3345 72.2272 101.879 74.062 102.193C77.6245 102.804 81.475 103.365 85.1939 103.836C87.9666 104.191 94.203 104.34 95.9967 105.654C99.2712 108.041 97.6504 113.377 93.2075 113.327C86.5103 113.245 60.9637 108.421 60.4454 108.528V108.52ZM67.9407 114.864L69.4546 115.004C70.4501 115.805 83.5072 117.358 85.8932 117.54C88.707 117.763 91.4386 119.068 90.8709 122.595C90.369 125.734 87.8843 126.345 84.33 126.015C75.872 125.238 67.8995 123.537 59.5733 122.207C57.1544 121.819 53.1887 121.596 51.1236 121.1C51.3128 120.026 52.2014 118.432 52.6374 117.119C52.7279 116.846 52.802 116.565 52.876 116.276C53.4026 115.169 53.8551 114.021 54.2336 112.832C58.7011 112.947 63.613 114.467 67.9489 114.864H67.9407ZM30.6041 94.2876C34.1584 93.5524 37.6386 95.8488 38.3709 99.4254C39.1031 102.994 36.8159 106.488 33.2533 107.223C29.699 107.958 26.2188 105.662 25.4865 102.085C24.7543 98.5168 27.0415 95.0227 30.6041 94.2876ZM0.877908 148.4C4.28411 147.615 9.4428 146.715 10.8909 143.336C12.125 140.462 8.85863 137.463 12.1579 136.175L16.5843 134.531L16.2552 128.46C19.9329 126.973 21.6689 126.998 22.9277 125.048C23.66 123.908 25.7745 120.34 26.6219 119.597C34.002 120.877 41.5138 118.614 45.6605 112.162C53.4931 99.9871 44.1795 84.3011 30.456 84.838C25.1327 85.0445 20.1057 87.8034 16.9134 92.0408C11.837 98.7894 12.6186 106.579 17.2014 113.344L3.22277 134.597C2.41647 135.836 1.75827 136.852 0.943743 138.083C-0.808726 140.726 0.310207 145.302 0.877908 148.408V148.4Z" fill="#292482"/>
</svg>
