<svg width="380" height="214" viewBox="0 0 380 214" fill="none" xmlns="http://www.w3.org/2000/svg">
<rect width="380" height="214" rx="8" fill="#292482"/>
<path fill-rule="evenodd" clip-rule="evenodd" d="M46.5608 30.3933C46.6206 30.6442 47.8974 32.9405 48.5819 35.0351C49.1741 36.8623 49.6468 38.3241 50.4672 39.9114C51.6135 42.1314 54.8462 46.0041 56.7532 46.2168L58.0462 46.915C62.2894 48.5568 64.6527 48.115 68.972 48.0386C70.9713 48.0059 72.661 50.1659 71.5309 52.1786C70.4878 54.0386 68.0484 53.8804 65.522 53.8586C58.2635 53.8095 52.3578 51.4858 47.9191 46.2059C47.4681 45.6713 46.713 44.3895 46.2675 44.1332C46.1316 43.3423 45.4634 42.5132 45.0722 41.6896C44.7951 41.1114 44.2627 39.6605 44.0073 39.2732C43.4314 37.086 42.6708 34.5387 41.3506 33.1096C38.7971 30.3387 32.6904 30.6333 30.6693 35.3351C29.887 37.1514 30.3107 39.8405 30.8106 41.8205L31.1203 42.5896C30.8432 44.8368 34.1682 51.5677 35.7111 53.7822C40.1771 60.1749 46.6912 63.0167 54.1236 64.5603C55.7589 64.8985 65.1037 66.4639 66.1848 66.2566C67.4888 67.0857 69.6837 66.2294 70.9115 68.1003C72.0633 69.8512 70.9822 71.8966 69.4229 72.3766C68.445 72.6766 65.0874 71.9348 63.8921 71.7712C54.8407 70.5221 46.5554 69.5621 39.2154 64.8767C34.3638 61.7785 30.0391 57.0604 27.2194 49.6368C26.0621 46.5877 24.6604 41.3459 24.5572 37.975C24.4648 35.0405 25.4102 32.9242 26.8391 30.7478C27.4964 29.7551 27.8659 29.7606 28.3657 28.8769L28.4961 28.7842C30.0011 27.9933 30.327 27.1588 32.9675 26.2915C41.3615 23.5261 46.1099 30.1096 46.5717 30.3824L46.5608 30.3933ZM65.321 34.0096C60.4585 34.8223 61.996 29.3297 57.3616 23.1606C44.2898 5.75528 18.8634 11.1389 12.7133 30.2951C9.34479 40.7896 14.3595 48.9877 13.3652 54.6276C12.9686 56.8694 11.4691 59.1222 9.69251 60.0767C7.14443 61.4458 4.51485 58.9749 5.62861 56.5422C6.36207 54.9386 8.18756 55.2658 7.87245 52.1949C7.83442 51.8186 7.76379 51.4477 7.68773 51.0822L7.35088 50.0895V49.5059C6.35121 43.615 5.3298 39.2023 6.20995 33.3442C6.90537 28.7406 8.80693 24.1751 10.8171 21.2079C13.1805 17.7225 15.4243 15.1643 19.4665 12.3225C23.1555 9.73161 27.6214 8.0189 32.6469 7.228C40.1227 6.35528 48.0332 7.98072 54.0095 12.2298C54.493 12.5734 54.6289 12.5789 55.145 13.0425C57.1606 14.8534 57.8289 14.9352 60.3607 17.8534C61.5396 19.2115 62.8381 20.9733 63.7726 22.6861C64.8375 24.6224 65.5166 26.4442 66.3261 28.5878C67.4127 31.4787 67.8854 32.5314 65.321 34.0096ZM40.2205 16.4843C46.1968 18.017 52.7382 19.6261 58.0408 33.5078C60.4096 39.7641 63.3923 38.5314 66.864 38.2859C69.8141 38.0732 69.7652 40.8168 69.8956 41.8805C69.2925 42.5732 69.211 43.2932 68.157 43.7132C67.3421 44.035 65.8208 44.1877 64.9244 44.2423C59.2415 44.5914 55.1939 41.5696 52.9283 35.9514C50.2933 29.4169 47.1476 22.577 38.8623 22.097C37.1129 21.5297 33.0598 22.3152 31.3321 22.9642C29.197 23.7606 27.3226 25.026 25.9698 26.3624C23.476 28.8278 20.9171 32.7551 20.9442 38.0459C20.7704 40.3314 21.6234 44.6186 22.0797 46.9422C22.6937 50.0568 23.4217 54.5895 22.3351 57.9494C20.1184 58.1076 18.0159 58.664 16.0926 59.5531C16.0871 59.3894 16.0926 59.2203 16.1197 59.0458C16.299 57.8731 16.913 57.2949 17.0922 55.4349C17.603 50.084 16.2719 48.2404 15.5493 41.8641C14.4464 32.1878 17.9072 24.4915 25.9372 19.3206C30.3488 16.4788 34.7495 16.157 40.2205 16.5007V16.4843ZM39.5034 36.9932C40.4976 40.9641 40.5574 43.3805 43.1489 47.1986C44.9635 49.8713 47.3867 52.0368 50.0162 53.3731C52.8142 54.7913 55.8404 55.7458 59.4153 56.384C61.1756 56.6949 62.9033 56.8967 64.7451 57.0876C65.9295 57.2076 69.2599 57.6494 70.1618 57.5785L70.8844 58.1622C72.9489 59.7876 71.884 63.1694 69.0046 63.153C66.3044 63.1367 63.2565 62.4276 60.5888 62.3349L59.9478 62.3185L59.2578 62.0785C55.0417 61.2058 53.3956 61.113 48.8644 59.1222C41.6168 55.9367 37.0151 50.1386 34.8908 42.4095C34.3094 40.2932 33.451 37.4078 34.706 35.9732C35.2928 35.3023 36.45 34.8332 37.5366 35.1387C38.5798 35.4278 39.0361 35.8751 39.5034 36.9932ZM44.3822 91.0965C46.425 91.7183 55.9436 92.1056 56.7857 92.5528C57.9104 93.1474 58.5569 94.4674 58.144 96.0383C57.0031 98.3946 55.2102 97.9964 52.3687 97.7401C50.1629 97.5437 48.0495 97.2492 45.8491 96.9982C38.8405 96.1964 39.1231 96.6437 33.5216 99.6982C32.5926 100.205 31.6255 100.838 30.3977 100.565C29.4469 100.353 28.67 99.6873 28.3603 98.6182C27.6105 96.0546 29.925 95.2201 31.6799 94.2274C33.4727 93.2128 35.1298 92.2201 37.265 91.5546C40.2423 90.6274 41.5353 91.0201 44.3876 91.091L44.3822 91.0965ZM44.9146 78.6602L43.8443 78.3111C43.5021 78.2457 43.2467 78.202 42.899 78.1366C42.5078 78.0657 42.0134 77.9893 41.5625 77.8911C41.6277 77.2693 41.6603 76.6366 41.6603 75.9984C41.6603 74.662 41.5136 73.3639 41.2419 72.1093C44.442 72.5948 52.6947 74.2748 53.9063 74.482C56.2588 74.8857 58.8014 75.2566 61.2571 75.5675C63.088 75.802 67.2062 75.9002 68.3906 76.7675C70.553 78.3438 69.4827 81.8674 66.5488 81.8347C62.1264 81.7802 45.2569 78.5947 44.9146 78.6656V78.6602ZM49.8641 82.8493L50.8638 82.942C51.5212 83.4711 60.1433 84.4965 61.7189 84.6165C63.577 84.7638 65.3808 85.6256 65.0059 87.9547C64.6745 90.0274 63.0337 90.431 60.6866 90.2128C55.1015 89.7001 49.8369 88.5765 44.3387 87.6983C42.7414 87.4419 40.1227 87.2947 38.7591 86.9674C38.884 86.2583 39.4708 85.2056 39.7587 84.3383C39.8185 84.1583 39.8674 83.9729 39.9163 83.782C40.264 83.0511 40.5628 82.2929 40.8127 81.5075C43.7628 81.5838 47.0063 82.5874 49.8695 82.8493H49.8641ZM25.2092 69.2621C27.5562 68.7766 29.8544 70.293 30.3379 72.6548C30.8214 75.0111 29.3111 77.3184 26.9586 77.8038C24.6115 78.2893 22.3134 76.7729 21.8298 74.4111C21.3463 72.0548 22.8567 69.7475 25.2092 69.2621ZM5.57972 104.995C7.82898 104.476 11.2355 103.882 12.1917 101.651C13.0066 99.7528 10.8497 97.7728 13.0284 96.9219L15.9513 95.8364L15.734 91.8274C18.1625 90.8456 19.3089 90.8619 20.1402 89.5747C20.6237 88.8219 22.02 86.4656 22.5796 85.9747C27.453 86.8201 32.4133 85.3256 35.1515 81.0656C40.3238 73.0257 34.1736 62.6676 25.1114 63.0221C21.5962 63.1585 18.2766 64.9803 16.1686 67.7785C12.8165 72.2348 13.3326 77.3784 16.3588 81.8456L7.12813 95.8801C6.59569 96.6982 6.16106 97.3691 5.62319 98.1819C4.46596 99.9273 5.20484 102.949 5.57972 105V104.995Z" fill="white" fill-opacity="0.1"/>
<path fill-rule="evenodd" clip-rule="evenodd" d="M347.561 121.393C347.621 121.644 348.897 123.941 349.582 126.035C350.174 127.862 350.647 129.324 351.467 130.911C352.614 133.131 355.846 137.004 357.753 137.217L359.046 137.915C363.289 139.557 365.653 139.115 369.972 139.039C371.971 139.006 373.661 141.166 372.531 143.179C371.488 145.039 369.048 144.88 366.522 144.859C359.264 144.809 353.358 142.486 348.919 137.206C348.468 136.671 347.713 135.39 347.267 135.133C347.132 134.342 346.463 133.513 346.072 132.69C345.795 132.111 345.263 130.66 345.007 130.273C344.431 128.086 343.671 125.539 342.351 124.11C339.797 121.339 333.69 121.633 331.669 126.335C330.887 128.151 331.311 130.84 331.811 132.82L332.12 133.59C331.843 135.837 335.168 142.568 336.711 144.782C341.177 151.175 347.691 154.017 355.124 155.56C356.759 155.898 366.104 157.464 367.185 157.257C368.489 158.086 370.684 157.229 371.912 159.1C373.063 160.851 371.982 162.897 370.423 163.377C369.445 163.677 366.087 162.935 364.892 162.771C355.841 161.522 347.555 160.562 340.215 155.877C335.364 152.778 331.039 148.06 328.219 140.637C327.062 137.588 325.66 132.346 325.557 128.975C325.465 126.041 326.41 123.924 327.839 121.748C328.496 120.755 328.866 120.761 329.366 119.877L329.496 119.784C331.001 118.993 331.327 118.159 333.967 117.291C342.361 114.526 347.11 121.11 347.572 121.382L347.561 121.393ZM366.321 125.01C361.458 125.822 362.996 120.33 358.362 114.161C345.29 96.7553 319.863 102.139 313.713 121.295C310.345 131.79 315.359 139.988 314.365 145.628C313.969 147.869 312.469 150.122 310.693 151.077C308.144 152.446 305.515 149.975 306.629 147.542C307.362 145.939 309.188 146.266 308.872 143.195C308.834 142.819 308.764 142.448 308.688 142.082L308.351 141.089V140.506C307.351 134.615 306.33 130.202 307.21 124.344C307.905 119.741 309.807 115.175 311.817 112.208C314.18 108.722 316.424 106.164 320.466 103.323C324.155 100.732 328.621 99.0189 333.647 98.228C341.123 97.3553 349.033 98.9807 355.009 103.23C355.493 103.573 355.629 103.579 356.145 104.042C358.161 105.853 358.829 105.935 361.361 108.853C362.54 110.212 363.838 111.973 364.773 113.686C365.837 115.622 366.517 117.444 367.326 119.588C368.413 122.479 368.885 123.531 366.321 125.01ZM341.221 107.484C347.197 109.017 353.738 110.626 359.041 124.508C361.41 130.764 364.392 129.531 367.864 129.286C370.814 129.073 370.765 131.817 370.896 132.88C370.293 133.573 370.211 134.293 369.157 134.713C368.342 135.035 366.821 135.188 365.924 135.242C360.241 135.591 356.194 132.57 353.928 126.951C351.293 120.417 348.148 113.577 339.862 113.097C338.113 112.53 334.06 113.315 332.332 113.964C330.197 114.761 328.323 116.026 326.97 117.362C324.476 119.828 321.917 123.755 321.944 129.046C321.77 131.331 322.623 135.619 323.08 137.942C323.694 141.057 324.422 145.589 323.335 148.949C321.118 149.108 319.016 149.664 317.093 150.553C317.087 150.389 317.093 150.22 317.12 150.046C317.299 148.873 317.913 148.295 318.092 146.435C318.603 141.084 317.272 139.24 316.549 132.864C315.446 123.188 318.907 115.492 326.937 110.321C331.349 107.479 335.75 107.157 341.221 107.501V107.484ZM340.503 127.993C341.498 131.964 341.557 134.38 344.149 138.199C345.964 140.871 348.387 143.037 351.016 144.373C353.814 145.791 356.84 146.746 360.415 147.384C362.176 147.695 363.903 147.897 365.745 148.088C366.929 148.208 370.26 148.649 371.162 148.579L371.884 149.162C373.949 150.788 372.884 154.169 370.005 154.153C367.304 154.137 364.256 153.428 361.589 153.335L360.948 153.318L360.258 153.078C356.042 152.206 354.396 152.113 349.864 150.122C342.617 146.937 338.015 141.139 335.891 133.41C335.309 131.293 334.451 128.408 335.706 126.973C336.293 126.302 337.45 125.833 338.537 126.139C339.58 126.428 340.036 126.875 340.503 127.993ZM345.382 182.096C347.425 182.718 356.944 183.106 357.786 183.553C358.91 184.147 359.557 185.467 359.144 187.038C358.003 189.395 356.21 188.996 353.369 188.74C351.163 188.544 349.049 188.249 346.849 187.998C339.841 187.196 340.123 187.644 334.522 190.698C333.593 191.205 332.626 191.838 331.398 191.565C330.447 191.353 329.67 190.687 329.36 189.618C328.611 187.055 330.925 186.22 332.68 185.227C334.473 184.213 336.13 183.22 338.265 182.555C341.242 181.627 342.535 182.02 345.388 182.091L345.382 182.096ZM345.915 169.66L344.844 169.311C344.502 169.246 344.247 169.202 343.899 169.137C343.508 169.066 343.013 168.989 342.562 168.891C342.628 168.269 342.66 167.637 342.66 166.998C342.66 165.662 342.514 164.364 342.242 163.109C345.442 163.595 353.695 165.275 354.906 165.482C357.259 165.886 359.801 166.257 362.257 166.567C364.088 166.802 368.206 166.9 369.391 167.767C371.553 169.344 370.483 172.867 367.549 172.835C363.126 172.78 346.257 169.595 345.915 169.666V169.66ZM350.864 173.849L351.864 173.942C352.521 174.471 361.143 175.497 362.719 175.617C364.577 175.764 366.381 176.626 366.006 178.955C365.674 181.027 364.034 181.431 361.687 181.213C356.102 180.7 350.837 179.576 345.339 178.698C343.741 178.442 341.123 178.295 339.759 177.967C339.884 177.258 340.471 176.206 340.759 175.338C340.818 175.158 340.867 174.973 340.916 174.782C341.264 174.051 341.563 173.293 341.813 172.507C344.763 172.584 348.006 173.587 350.87 173.849H350.864ZM326.209 160.262C328.556 159.777 330.854 161.293 331.338 163.655C331.821 166.011 330.311 168.318 327.959 168.804C325.612 169.289 323.313 167.773 322.83 165.411C322.346 163.055 323.857 160.748 326.209 160.262ZM306.58 195.995C308.829 195.476 312.235 194.882 313.192 192.651C314.007 190.753 311.85 188.773 314.028 187.922L316.951 186.836L316.734 182.827C319.163 181.846 320.309 181.862 321.14 180.575C321.624 179.822 323.02 177.466 323.58 176.975C328.453 177.82 333.413 176.326 336.152 172.066C341.324 164.026 335.174 153.668 326.111 154.022C322.596 154.158 319.277 155.98 317.169 158.778C313.816 163.235 314.333 168.378 317.359 172.846L308.128 186.88C307.596 187.698 307.161 188.369 306.623 189.182C305.466 190.927 306.205 193.949 306.58 196V195.995Z" fill="white" fill-opacity="0.1"/>
</svg>
